<?xml version="1.0" encoding="UTF-8"?>
<svg id="_圖層_2" data-name="圖層 2" xmlns="http://www.w3.org/2000/svg" viewBox="0 0 42.77 92.79">
  <defs>
    <style>
      .cls-1 {
        fill: #e60012;
      }
    </style>
  </defs>
  <g id="_レイヤ_1" data-name="レイヤ− 1">
    <g>
      <path class="cls-1" d="M4.94,49.9c0-3.19,0-6.39,0-9.58,0-2.79,0-5.58,0-8.37,0-.89-.01-1.78-.01-2.67,0-1.54,0-3.07.02-4.61.02-1.14-.06-2.24-.35-3.35-.32-1.19-.46-2.43-.42-3.71.1-2.87.15-5.74.23-8.61.05-1.87.87-2.88,2.45-3,.44-.03.88-.05,1.31-.05,1.86.01,3.71.03,5.57.05.37,0,.75,0,1.1.11.76.26,1.53.3,2.3.31,3.51.05,7.02.12,10.52.14,1.89.01,3.78-.04,5.67-.08.4,0,.8-.09,1.21-.14.58-.08,1,.21,1.21.84.13.37.2.77.25,1.16.08.56.1,1.13.19,1.68.05.35.13.73.28,1.03.65,1.27.75,2.66.69,4.09-.04,1.05-.08,2.1-.08,3.15,0,1.37.05,2.75.03,4.12-.01,1.29-.09,2.59-.13,3.88,0,.12,0,.24-.02.36-.34,2.25-.16,4.51-.04,6.77.07,1.41.17,2.82.21,4.24.03.95.19,1.82.62,2.64.23.44.35.96.47,1.46.14.64.12,1.29-.22,1.86-.25.42-.27.89-.29,1.38-.11,2.3-.24,4.6-.36,6.9-.02.4-.03.81-.03,1.21-.02,4.65-.05,9.3-.07,13.95-.01,3.44,0,6.87-.01,10.31,0,1.58,0,3.15,0,4.73,0,.69,0,1.36-.19,2.04-.09.32-.02.71,0,1.07.05.65-.11,1.02-.65,1.15-.42.1-.88.13-1.3.05-1.77-.35-3.56-.43-5.35-.37-.3.01-.62,0-.9.1-1.9.67-3.84.75-5.81.62-.83-.05-1.68.14-2.51.24-.37.05-.73.16-1.1.22-.82.15-1.62.07-2.36-.43-.51-.35-1.07-.48-1.65-.5-1.99-.07-3.98-.12-5.96.16-.43.06-.89.05-1.3-.06-1.3-.37-2.08-1.54-2.21-3.24-.13-1.7-.39-3.36-.72-5.01-.16-.79-.22-1.59-.22-2.4,0-6.67,0-13.34,0-20.02,0-1.94,0-3.88,0-5.82-.03,0-.06,0-.08,0Z"/>
      <path class="cls-1" d="M41.38,9.53c-.06,1.38.04,2.74.19,4.1.04.36.06.73.02,1.09-.11.97-.09,1.93-.04,2.9.03.44.02.89.01,1.33-.04,2.99-.09,5.98-.13,8.97-.01.73.04,1.45.22,2.15.46,1.8.58,3.64.44,5.52-.03.36,0,.73,0,1.09.11,2.95.24,5.89.32,8.84.04,1.49-.04,2.99-.03,4.48,0,.6.07,1.21.12,1.81.11,1.25.22,2.49.12,3.75-.04.56-.09,1.15,0,1.69.29,1.74.1,3.46-.11,5.18-.07.6-.17,1.2-.23,1.8-.06.68-.12,1.37-.11,2.05.01.75-.1,1.42-.35,2.11-.22.58-.31,1.24-.45,1.86-.06.27-.1.55-.18.82-.07.24-.22.41-.44.44-.26.03-.47-.11-.58-.38-.09-.21-.16-.45-.17-.69-.05-.85-.08-1.7.13-2.53.16-.59.17-1.18.16-1.79-.02-1.17.05-2.35-.01-3.51-.22-4-.11-8-.12-12-.01-2.38-.07-4.77-.09-7.15,0-1.29.03-2.58.05-3.88,0-.08,0-.16.02-.24.41-2.25.09-4.51.07-6.76-.01-1.66-.1-3.31-.09-4.97,0-1.33.13-2.66.16-3.99.04-2.02.02-4.04.06-6.06.04-2.26.12-4.52.17-6.78.03-1.05.09-2.1-.12-3.14-.11-.55-.12-1.13.11-1.66.1-.22.25-.43.47-.34.14.06.26.24.34.4.06.13.08.31.08.47,0,1.01,0,2.02,0,3.02Z"/>
      <path class="cls-1" d="M.25,43.24c0-1.74,0-3.48,0-5.21,0-2.43-.02-4.85,0-7.28.03-2.46.12-4.93.15-7.39.02-1.29,0-2.59-.05-3.88-.01-.44-.14-.87-.19-1.31-.05-.44-.09-.88-.09-1.32,0-.25.15-.45.37-.51.23-.06.41.08.5.31.36.87.71,1.76.72,2.75,0,1.35.17,2.65.61,3.91.23.65.23,1.33.03,2.02-.14.5-.25,1.01-.38,1.51-.19.73-.18,1.46.15,2.11.66,1.28.6,2.6.28,3.98-.13.54-.19,1.11-.27,1.67-.11.81-.08,1.62.22,2.38.3.77.32,1.54.2,2.37-.45,3-.57,6.02-.49,9.06.03,1.17.06,2.34-.16,3.5-.04.23-.04.48-.04.72,0,1.9.05,3.8.02,5.7-.02,1.05-.12,2.1-.23,3.13-.1.85-.12,1.69-.08,2.54.05.97.06,1.94.07,2.91,0,.64-.17.96-.58,1.15-.47.22-.9-.08-.96-.69-.02-.2,0-.4,0-.61.02-2.06.07-4.12.06-6.18,0-2.14-.06-4.28-.07-6.43,0-1.13-.01-2.27.09-3.39.21-2.3.18-4.6.08-6.9,0-.2-.02-.4-.03-.61.02,0,.03,0,.05,0Z"/>
      <path class="cls-1" d="M21.07,90.47c5.65,0,10.14,0,14.62,0,.81,0,1.62,0,2.43,0,.17,0,.34,0,.51-.02,1.11-.09,1.49-.55,1.56-1.88.04-.93.09-1.86.09-2.78,0-.6-.07-1.21-.13-1.81-.07-.72-.18-1.44-.24-2.16-.03-.4,0-.81.21-1.16.22-.36.66-.42.86-.06.16.29.32.64.35.98.14,1.36.32,2.72.57,4.05.03.16.04.32.02.48-.1,1.09-.07,2.16.11,3.24.15.87-.28,1.64-.67,2.35-.19.34-.54.32-.84.24-.67-.17-1.34-.08-2.02-.06-.71.01-1.4.15-2.08.44-.37.16-.79.23-1.18.23-1.65.02-3.3-.02-4.96,0-.58,0-1.14,0-1.71-.15-.32-.08-.68-.13-1-.07-2.31.42-4.64.36-6.97.39-1.42.02-2.83.07-4.25.06-.6,0-1.22-.08-1.8-.24-1.53-.42-3.06-.54-4.62-.45-1.11.06-2.23.03-3.34.02-.3,0-.61-.06-.9-.15-.37-.11-.53-.46-.57-.9-.03-.35.15-.65.43-.71.1-.02.2-.03.3-.03,1.68.02,3.37.04,5.05.06.94,0,1.89,0,2.83,0,.17,0,.34-.02.51,0,2.66.23,5.33.03,6.82.1Z"/>
      <path class="cls-1" d="M5.61.07c3.07.11,6.13.24,9.2.32,1.75.04,3.51-.03,5.26,0,1.01.02,2.02-.07,3.03-.16,1.92-.17,3.84-.1,5.77-.01.27.01.54.04.81.03,2.6-.07,5.19-.14,7.79-.22.13,0,.27-.01.4-.01,1.34,0,2.16.84,2.33,2.41.05.46-.09.78-.44.99-.34.2-.62.13-.89-.27-.15-.22-.27-.46-.4-.7-.29-.52-.68-.65-1.21-.65-2.33.03-4.64.41-6.96.54-.68.04-1.33,0-2-.21-.71-.22-1.46-.33-2.2-.4-.39-.04-.81.07-1.19.21-.69.25-1.38.37-2.09.36-.37,0-.75.02-1.11.1-.77.18-1.54.22-2.32.2-.24,0-.47-.02-.71,0-2.4.13-4.79-.07-7.18-.3-.74-.07-1.48-.07-2.22-.09-.98-.01-1.96-.08-2.88-.54-.38-.19-.78-.21-1.18-.05-.57.23-1.16.42-1.74.64-.29.11-.57.23-.86.37-.37.17-.61.49-.74.94-.1.34-.17.7-.31,1.03-.27.64-.37,1.26-.16,1.98.15.51.06,1.05-.23,1.49-.13.2-.31.37-.52.26-.14-.07-.29-.24-.34-.4-.19-.62-.23-1.27-.1-1.91.27-1.24.22-2.49.13-3.73-.06-.77.13-1.26.67-1.59.3-.18.62-.34.95-.39,1.1-.16,2.2-.43,3.32-.23.1.02.2.01.3.02,0,0,0-.01,0-.02Z"/>
      <path class="cls-1" d="M1.38,76.3c-.1.71.13,1.44.48,2.16.81,1.73.9,1.38.78,4.01-.06,1.41-.09,2.83.12,4.23.15,1-.22,1.72-.77,2.37-.28.33-.65.41-1.03.39-.49-.03-.84-.36-.92-.94-.05-.35-.04-.72-.03-1.08.07-3.39.17-6.78.04-10.17-.03-.68.02-1.37.05-2.05.01-.24.09-.47.16-.69.11-.31.44-.4.69-.23.25.18.4.45.43.78.03.36,0,.72,0,1.22Z"/>
    </g>
  </g>
</svg>