<?xml version="1.0" encoding="UTF-8"?>
<svg id="_圖層_2" data-name="圖層 2" xmlns="http://www.w3.org/2000/svg" viewBox="0 0 191.46 415.32">
  <defs>
    <style>
      .cls-1 {
        fill: #d71718;
      }
    </style>
  </defs>
  <g id="_圖層_1-2" data-name="圖層 1">
    <g>
      <path class="cls-1" d="M22.11,223.33c0-14.3,0-28.59,0-42.89,0-12.49.02-24.98.01-37.46,0-3.98-.06-7.96-.05-11.94.01-6.88,0-13.75.1-20.63.08-5.1-.26-10.03-1.58-14.97-1.43-5.32-2.08-10.89-1.88-16.59.44-12.84.68-25.68,1.02-38.52.22-8.37,3.9-12.88,10.98-13.43,1.96-.15,3.92-.21,5.89-.2,8.3.05,16.61.11,24.91.23,1.65.02,3.38-.03,4.94.49,3.4,1.15,6.83,1.35,10.31,1.39,15.7.2,31.41.53,47.11.64,8.45.06,16.91-.18,25.36-.36,1.8-.04,3.6-.39,5.4-.63,2.59-.34,4.46.93,5.43,3.76.56,1.64.88,3.44,1.13,5.2.36,2.49.46,5.04.85,7.52.24,1.58.57,3.25,1.26,4.59,2.91,5.68,3.35,11.89,3.1,18.31-.18,4.69-.34,9.39-.36,14.09-.02,6.15.21,12.3.14,18.44-.07,5.79-.38,11.57-.59,17.36-.02.54,0,1.09-.08,1.63-1.54,10.08-.71,20.19-.18,30.29.33,6.32.76,12.63.93,18.96.11,4.27.86,8.16,2.77,11.84,1.01,1.95,1.58,4.29,2.08,6.53.65,2.88.55,5.77-1,8.31-1.14,1.86-1.21,3.99-1.31,6.19-.49,10.29-1.08,20.58-1.61,30.87-.09,1.8-.13,3.62-.14,5.42-.11,20.81-.23,41.63-.3,62.44-.05,15.38-.04,30.77-.05,46.15,0,7.06.02,14.12.03,21.18,0,3.07-.03,6.1-.87,9.12-.4,1.43-.09,3.18.03,4.78.21,2.93-.5,4.59-2.91,5.14-1.89.43-3.93.6-5.82.23-7.94-1.57-15.92-1.91-23.93-1.64-1.35.05-2.77,0-4.04.44-8.53,2.99-17.2,3.35-26,2.78-3.72-.24-7.5.61-11.25,1.07-1.65.2-3.27.7-4.91.99-3.67.65-7.23.32-10.54-1.93-2.29-1.56-4.77-2.16-7.38-2.26-8.91-.31-17.81-.54-26.7.71-1.91.27-3.96.24-5.82-.29-5.84-1.64-9.31-6.89-9.9-14.52-.59-7.62-1.76-15.03-3.21-22.43-.7-3.55-1-7.12-1-10.76.03-29.86.03-59.73.03-89.59,0-8.69,0-17.38,0-26.06-.12,0-.25,0-.37,0Z"/>
      <path class="cls-1" d="M185.22,42.65c-.26,6.16.2,12.27.86,18.37.17,1.6.25,3.27.07,4.86-.49,4.33-.42,8.65-.18,12.99.11,1.98.07,3.98.05,5.97-.19,13.38-.38,26.76-.6,40.14-.05,3.28.2,6.5,1,9.65,2.06,8.07,2.59,16.31,1.95,24.69-.12,1.61-.03,3.25.03,4.87.49,13.19,1.09,26.37,1.44,39.56.18,6.68-.16,13.38-.14,20.07,0,2.7.32,5.39.55,8.08.48,5.58.99,11.14.55,16.77-.2,2.51-.42,5.13-.01,7.56,1.31,7.81.45,15.49-.48,23.19-.33,2.68-.78,5.35-1.02,8.04-.27,3.05-.55,6.13-.5,9.19.05,3.33-.45,6.38-1.59,9.45-.96,2.62-1.37,5.53-2.01,8.32-.28,1.22-.46,2.47-.81,3.66-.31,1.08-.99,1.83-1.98,1.96-1.18.15-2.1-.49-2.59-1.72-.39-.96-.7-2.03-.77-3.08-.24-3.79-.38-7.62.59-11.31.7-2.64.75-5.3.7-8.03-.1-5.24.22-10.51-.07-15.73-1-17.89-.48-35.79-.56-53.69-.05-10.67-.32-21.34-.4-32.01-.04-5.78.13-11.57.2-17.35,0-.36,0-.73.07-1.08,1.82-10.06.41-20.18.33-30.27-.06-7.41-.43-14.82-.39-22.23.03-5.96.59-11.91.71-17.88.18-9.03.11-18.08.27-27.11.18-10.12.52-20.24.77-30.35.12-4.69.41-9.38-.54-14.04-.5-2.48-.53-5.05.49-7.43.43-1,1.12-1.93,2.12-1.51.61.25,1.14,1.07,1.5,1.79.29.58.36,1.39.36,2.1.03,4.51.02,9.03.02,13.54Z"/>
      <path class="cls-1" d="M1.13,193.55c0-7.78,0-15.56,0-23.34,0-10.86-.1-21.72.02-32.57.12-11.03.53-22.06.69-33.09.08-5.78-.03-11.58-.21-17.36-.06-1.96-.64-3.89-.86-5.86-.22-1.95-.39-3.93-.38-5.9,0-1.12.65-2.02,1.66-2.28,1.03-.26,1.84.36,2.25,1.37,1.6,3.9,3.2,7.89,3.23,12.32.04,6.05.77,11.87,2.72,17.48,1.02,2.93,1.02,5.97.12,9.02-.65,2.22-1.13,4.5-1.72,6.75-.85,3.27-.83,6.54.67,9.45,2.95,5.74,2.68,11.65,1.23,17.8-.57,2.43-.85,4.96-1.19,7.46-.49,3.64-.35,7.25.98,10.63,1.35,3.43,1.44,6.92.88,10.59-2.03,13.41-2.55,26.94-2.18,40.54.14,5.24.26,10.49-.73,15.67-.2,1.04-.17,2.16-.17,3.24.03,8.5.21,17.01.08,25.51-.07,4.68-.52,9.38-1.05,14.03-.43,3.79-.54,7.54-.34,11.36.23,4.33.28,8.68.33,13.02.03,2.84-.78,4.3-2.6,5.13-2.12.97-4.01-.36-4.28-3.07-.09-.89-.04-1.81-.03-2.71.1-9.23.29-18.45.28-27.67,0-9.59-.27-19.17-.3-28.76-.02-5.06-.06-10.15.4-15.16.94-10.3.79-20.59.38-30.9-.04-.9-.08-1.81-.12-2.71.08,0,.15,0,.23,0Z"/>
      <path class="cls-1" d="M94.31,404.94c25.3,0,45.37,0,65.45,0,3.62,0,7.24.03,10.87.03.75,0,1.51-.02,2.26-.08,4.95-.4,6.68-2.47,6.97-8.43.2-4.15.41-8.31.41-12.46,0-2.7-.33-5.4-.59-8.08-.32-3.23-.8-6.44-1.07-9.67-.15-1.8-.01-3.62.94-5.19.97-1.61,2.96-1.88,3.87-.28.74,1.31,1.42,2.87,1.58,4.41.63,6.1,1.42,12.15,2.56,18.15.13.7.16,1.45.09,2.16-.46,4.87-.33,9.65.49,14.52.66,3.9-1.24,7.35-3,10.52-.85,1.53-2.43,1.43-3.76,1.09-3.01-.77-6.02-.34-9.03-.28-3.19.06-6.28.68-9.32,1.96-1.67.7-3.53,1.01-5.3,1.03-7.39.07-14.79-.09-22.18-.04-2.57.01-5.11-.03-7.65-.68-1.45-.37-3.03-.57-4.48-.3-10.35,1.87-20.77,1.63-31.19,1.74-6.33.07-12.67.33-19,.26-2.7-.03-5.45-.34-8.07-1.07-6.83-1.89-13.71-2.4-20.69-2.03-4.97.26-9.96.13-14.94.07-1.34-.02-2.71-.27-4.01-.68-1.65-.51-2.39-2.08-2.57-4.03-.14-1.55.68-2.92,1.92-3.19.44-.1.9-.13,1.35-.12,7.54.08,15.08.2,22.63.26,4.22.04,8.45,0,12.67,0,.75,0,1.51-.11,2.26-.04,11.91,1.02,23.84.16,30.54.45Z"/>
      <path class="cls-1" d="M25.1.32c13.73.49,27.46,1.08,41.19,1.43,7.85.2,15.7-.12,23.55.04,4.54.09,9.04-.33,13.55-.74,8.6-.78,17.2-.46,25.81-.05,1.21.06,2.41.19,3.62.16,11.62-.31,23.24-.65,34.86-.98.6-.02,1.21-.06,1.81-.06,6.01-.02,9.65,3.75,10.43,10.8.23,2.07-.4,3.49-1.97,4.42-1.53.91-2.77.57-3.97-1.21-.66-.98-1.21-2.07-1.81-3.12-1.31-2.32-3.04-2.93-5.42-2.9-10.43.12-20.76,1.84-31.15,2.41-3.04.17-5.97-.02-8.96-.94-3.2-.99-6.53-1.5-9.83-1.8-1.75-.16-3.62.31-5.32.93-3.07,1.12-6.16,1.68-9.37,1.59-1.65-.04-3.34.07-4.95.46-3.44.83-6.89,1-10.37.88-1.06-.03-2.12-.09-3.17-.03-10.74.6-21.43-.31-32.12-1.36-3.31-.33-6.64-.33-9.96-.38-4.4-.07-8.75-.34-12.89-2.44-1.72-.87-3.47-.96-5.3-.21-2.57,1.05-5.19,1.88-7.78,2.85-1.29.49-2.57,1.05-3.83,1.64-1.65.77-2.72,2.21-3.3,4.21-.45,1.54-.77,3.15-1.39,4.59-1.23,2.87-1.66,5.65-.73,8.84.67,2.28.27,4.68-1.01,6.69-.57.89-1.37,1.65-2.32,1.19-.62-.3-1.29-1.06-1.51-1.79-.85-2.77-1.04-5.7-.43-8.55,1.19-5.53,1-11.16.57-16.7-.27-3.46.59-5.66,2.99-7.1,1.33-.8,2.78-1.54,4.24-1.75,4.93-.7,9.86-1.92,14.87-1.04.45.08.9.05,1.36.08,0-.02,0-.05,0-.07Z"/>
      <path class="cls-1" d="M6.18,341.53c-.43,3.16.6,6.43,2.14,9.69,3.65,7.75,4.01,6.17,3.5,17.95-.27,6.31-.42,12.67.55,18.93.69,4.48-1,7.7-3.44,10.61-1.26,1.5-2.91,1.84-4.62,1.74-2.18-.13-3.75-1.63-4.13-4.19-.23-1.58-.18-3.23-.14-4.85.32-15.18.74-30.35.16-45.54-.12-3.05.07-6.13.23-9.19.06-1.05.38-2.12.73-3.11.47-1.37,1.96-1.79,3.08-1.02,1.13.79,1.79,2.01,1.92,3.49.13,1.61.03,3.24.03,5.48Z"/>
    </g>
  </g>
</svg>